<?xml version="1.0" standalone="no"?>
<!DOCTYPE svg PUBLIC "-//W3C//DTD SVG 20010904//EN"
 "http://www.w3.org/TR/2001/REC-SVG-20010904/DTD/svg10.dtd">
<svg version="1.0" xmlns="http://www.w3.org/2000/svg"
 width="700.000000pt" height="700.000000pt" viewBox="0 0 700.000000 700.000000"
 preserveAspectRatio="xMidYMid meet">
<metadata>
Created by potrace 1.11, written by Peter Selinger 2001-2013
</metadata>
<g transform="translate(0.000000,700.000000) scale(0.100000,-0.100000)"
fill="#000000" stroke="none">
<path d="M3604 6961 c-19 -32 -79 -57 -112 -46 -17 5 -24 1 -33 -19 -7 -14
-21 -29 -33 -32 -40 -12 -47 -23 -32 -53 13 -25 11 -33 -22 -107 -25 -59 -40
-80 -51 -78 -9 2 -36 -13 -60 -35 l-45 -38 27 -32 c28 -34 33 -50 19 -67 -5
-5 -20 -37 -35 -71 -21 -49 -690 -1130 -715 -1155 -4 -3 -32 -2 -62 3 -68 11
-110 17 -175 24 -27 4 -57 8 -65 10 -8 3 -40 7 -70 10 -30 3 -62 8 -70 10 -8
2 -37 7 -64 10 -27 3 -94 12 -150 21 -55 8 -117 17 -136 19 -118 13 -191 34
-416 120 -137 53 -253 102 -259 108 -5 7 -21 13 -35 14 -14 0 -34 4 -45 7 -17
6 -23 1 -33 -29 -10 -25 -23 -39 -48 -50 -19 -8 -34 -21 -34 -30 0 -14 -7 -16
-40 -10 -37 6 -42 4 -91 -44 l-53 -50 95 -108 c51 -59 98 -113 104 -119 5 -6
35 -39 65 -75 30 -35 71 -82 91 -104 20 -22 47 -53 60 -69 13 -16 29 -34 34
-40 106 -117 140 -165 205 -291 40 -77 94 -180 120 -230 26 -49 81 -155 122
-235 136 -261 220 -423 276 -531 l56 -107 -249 -251 -250 -251 -35 34 -35 34
-46 -42 -47 -42 35 -39 34 -38 -57 -58 -57 -57 41 -41 c22 -23 45 -41 50 -41
6 0 32 22 58 50 26 27 50 48 52 45 7 -7 -137 -203 -166 -226 -15 -12 -22 -23
-16 -27 5 -4 68 -72 139 -152 72 -80 139 -154 150 -166 27 -28 100 -108 155
-169 25 -28 83 -93 130 -144 47 -51 93 -103 103 -115 10 -11 49 -55 87 -96 38
-41 77 -85 87 -96 10 -12 55 -61 99 -110 45 -49 175 -192 289 -319 114 -126
246 -272 293 -323 47 -51 94 -103 104 -115 11 -12 52 -58 91 -101 40 -44 79
-87 87 -96 8 -10 53 -59 100 -111 98 -108 179 -197 230 -253 19 -22 49 -55 66
-73 l31 -34 33 27 c27 23 35 26 51 16 15 -9 21 -8 31 7 11 15 101 116 198 221
14 15 59 65 100 110 97 109 279 310 344 380 87 95 220 242 238 262 20 23 165
183 193 212 17 18 99 109 325 360 19 21 42 46 50 55 18 18 178 195 231 255 19
21 45 50 59 65 38 41 201 219 219 240 9 10 51 57 95 104 115 126 117 130 112
144 -3 7 -1 15 5 19 6 3 7 13 4 23 -5 11 16 37 77 94 76 70 81 79 66 91 -10 7
-18 19 -18 27 0 8 -27 32 -60 54 -33 22 -60 46 -60 52 0 7 -4 14 -10 14 -5 1
-14 2 -19 3 -26 3 -378 266 -404 301 -16 22 -71 103 -123 180 l-95 141 272
449 c150 248 358 592 463 765 104 173 195 318 200 322 6 4 28 10 49 14 26 4
37 10 33 19 -22 58 -18 81 29 159 26 43 54 80 61 83 8 3 14 15 14 27 0 11 7
30 15 40 21 28 19 33 -15 51 -17 9 -38 31 -47 50 -15 31 -19 33 -62 32 -25 -1
-50 -7 -56 -14 -8 -10 -252 -103 -270 -103 -3 0 4 15 15 33 11 17 20 39 20 48
0 18 -96 67 -107 55 -5 -4 -30 -51 -58 -104 l-50 -95 -230 -79 c-126 -43 -309
-106 -405 -140 -216 -74 -300 -101 -304 -97 -6 10 -141 175 -145 179 -4 3 -44
52 -91 110 -46 58 -87 107 -90 110 -3 3 -24 27 -45 54 -22 28 -53 64 -69 80
-25 28 -69 113 -150 289 -14 32 -26 59 -26 62 0 2 -17 41 -39 87 -21 46 -57
126 -81 178 -23 52 -50 113 -60 135 -25 55 -109 243 -125 280 -7 17 -31 69
-53 117 l-40 87 44 70 44 70 -43 29 c-23 16 -47 32 -54 35 -7 5 -19 -4 -29
-22z m-19 -576 c32 -71 63 -136 69 -144 8 -11 8 -13 -1 -8 -6 4 -46 50 -88
102 l-78 95 18 46 c9 25 18 44 20 42 1 -2 28 -61 60 -133z m-80 -180 c22 -27
110 -133 195 -236 152 -183 157 -191 219 -331 77 -171 128 -286 141 -313 6
-11 59 -130 119 -265 l110 -245 -39 -10 c-21 -5 -41 -13 -44 -16 -8 -8 15
-119 25 -119 4 0 38 7 76 16 43 10 69 12 71 5 2 -5 26 -1 60 10 54 19 287 74
362 85 19 3 63 12 98 20 34 7 75 16 92 19 16 3 113 22 215 44 102 21 185 37
185 35 0 -2 -50 -103 -111 -226 -61 -123 -210 -422 -330 -666 l-219 -444 -40
32 c-22 17 -44 29 -50 25 -20 -12 -72 -97 -63 -104 51 -35 110 -77 118 -84 6
-4 84 -61 175 -127 l166 -119 202 -299 c111 -165 202 -305 202 -310 0 -9 -50
-69 -105 -128 -11 -11 -45 -50 -75 -85 -30 -35 -57 -66 -60 -69 -3 -3 -70 -79
-149 -170 -154 -176 -212 -236 -446 -455 -215 -201 -320 -299 -405 -380 -41
-39 -116 -109 -165 -156 -129 -120 -270 -252 -340 -318 -33 -32 -95 -90 -137
-129 l-78 -73 -37 43 c-21 23 -47 52 -58 63 -11 12 -38 42 -60 67 -45 51 -144
163 -172 194 -10 11 -50 56 -89 100 -71 79 -202 225 -324 363 -36 40 -78 88
-95 105 -16 18 -55 61 -85 96 -30 35 -62 71 -71 79 -8 9 -76 84 -149 166 -73
83 -165 186 -204 230 -90 101 -152 170 -243 271 -40 44 -82 91 -93 105 -12 13
-49 55 -83 93 -34 38 -70 79 -80 92 l-18 24 103 142 c56 79 105 145 108 148 3
3 10 13 15 22 29 48 260 363 277 377 34 27 38 53 15 79 l-21 22 49 50 49 50
29 -35 c16 -19 34 -35 40 -35 7 1 30 18 51 39 l39 39 -22 28 c-13 16 -37 45
-54 64 -18 19 -77 87 -132 150 -55 63 -102 117 -105 120 -3 3 -48 55 -100 115
-52 61 -99 115 -105 121 -5 6 -32 37 -60 69 -27 32 -55 63 -60 69 -102 107
-157 187 -245 357 -94 184 -124 241 -233 450 -51 99 -55 110 -35 104 13 -4
140 -52 283 -107 143 -56 280 -109 305 -118 111 -41 455 -174 460 -177 2 -2
-3 -16 -12 -30 -16 -27 -16 -27 35 -60 l52 -33 21 24 c12 14 24 31 26 38 3 9
40 -1 137 -40 72 -28 138 -52 146 -52 7 0 19 16 25 36 7 22 17 33 25 30 8 -3
33 41 73 132 l61 137 54 -3 54 -2 7 46 c10 77 9 84 -18 84 -34 0 -37 9 -16 55
10 22 57 128 105 235 48 107 100 223 116 258 16 35 29 65 29 67 0 2 23 51 50
109 28 58 50 108 50 110 0 2 15 37 34 78 19 40 43 96 55 123 12 28 27 63 34
78 l12 28 20 -24 c11 -13 38 -45 60 -72z m-714 -797 c-5 -13 -23 -52 -39 -89
-17 -36 -36 -77 -41 -92 -8 -20 -17 -27 -37 -27 l-26 0 23 38 c13 20 40 63 61
95 21 32 38 62 38 66 0 7 21 31 27 31 1 0 -1 -10 -6 -22z m-1831 -152 c17 -33
25 -53 16 -42 -8 10 -30 35 -48 55 -48 52 -51 59 -24 54 18 -4 33 -22 56 -67z
m4881 -98 c-18 -30 -28 -34 -112 -51 -90 -17 -113 -17 -93 3 9 9 197 77 217
79 5 1 0 -14 -12 -31z m-3611 -24 c30 -3 57 -8 60 -9 3 -2 33 -7 65 -10 33 -4
63 -9 68 -12 9 -5 -23 -63 -35 -63 -13 0 -195 70 -258 99 -23 11 -23 11 10 6
19 -2 60 -7 90 -11z m2234 -88 c36 -43 63 -82 61 -86 -3 -4 -17 -10 -31 -13
-24 -4 -29 1 -52 52 -15 31 -27 58 -27 61 -1 3 -11 25 -23 50 -26 52 -18 44
72 -64z m-1837 26 c8 -5 5 -21 -12 -59 l-24 -51 -36 10 c-19 6 -35 15 -35 19
0 4 12 26 27 48 26 40 52 51 80 33z m3101 -109 c-8 -10 -37 -56 -64 -101 -27
-46 -56 -96 -65 -110 -9 -15 -61 -101 -116 -192 -55 -91 -171 -282 -258 -425
-86 -143 -200 -331 -252 -417 -52 -87 -97 -158 -99 -158 -3 0 -3 3 -1 8 3 4
83 167 180 362 440 894 498 1010 505 1011 10 1 35 6 112 23 36 8 67 15 69 15
2 1 -3 -7 -11 -16z m-3808 -1028 c23 -27 69 -79 100 -115 74 -83 100 -116 100
-127 0 -4 -15 -23 -33 -40 l-33 -33 -48 93 c-27 50 -71 134 -98 186 -27 51
-45 91 -40 90 5 -2 28 -26 52 -54z m3688 -1173 c-13 -15 -26 -5 -52 39 l-19
33 41 -30 c30 -22 38 -32 30 -42z m88 -43 c3 -6 -5 -22 -18 -36 l-25 -24 -17
26 c-17 25 -17 28 -1 46 18 19 45 14 61 -12z m-4076 -209 c3 -3 39 -43 80 -90
41 -47 77 -87 80 -90 3 -3 95 -106 205 -230 110 -124 204 -230 210 -236 5 -6
39 -43 75 -84 36 -40 70 -78 76 -84 5 -6 52 -58 103 -116 52 -58 108 -121 125
-140 17 -19 92 -102 165 -185 74 -82 150 -168 170 -190 20 -22 70 -78 111
-125 41 -47 92 -103 112 -125 20 -22 45 -49 55 -61 57 -65 151 -170 171 -190
28 -29 28 -35 -1 -62 l-23 -22 -19 23 c-15 18 -147 164 -205 227 -8 9 -35 39
-59 66 -25 27 -68 74 -95 104 -28 30 -86 94 -129 141 -42 48 -87 98 -100 111
-12 13 -53 60 -92 103 -38 43 -75 83 -81 89 -5 6 -34 38 -64 71 -29 33 -93
103 -140 155 -48 52 -156 172 -240 265 -85 94 -156 172 -159 175 -3 3 -42 45
-86 95 -80 90 -146 162 -199 219 -15 17 -56 62 -90 100 -33 38 -67 75 -73 82
-18 17 -17 20 13 58 l27 33 36 -41 c20 -23 38 -43 41 -46z m3860 22 c0 -7 -37
-49 -144 -162 -82 -87 -114 -110 -48 -35 29 33 81 92 115 132 58 67 77 83 77
65z m-1576 -1704 c-16 -18 -50 -56 -74 -83 -25 -28 -75 -84 -111 -125 -36 -41
-78 -88 -92 -105 -25 -29 -26 -29 -44 -12 -20 20 -26 14 238 259 106 100 136
124 83 66z m-409 -418 c17 -18 17 -21 1 -45 -20 -31 -24 -31 -53 -3 l-23 22
22 23 c26 28 30 28 53 3z"/>
</g>
</svg>
